# xmcd
#
# Track frame offsets: 
#        150
#        8278
#        25164
#        41371
#        56481
#        70587
#        86660
#        100609
#        116691
#        133328
#        148215
#        166407
#        177590
#
# Disc length: 2675 seconds
#
# Revision: 0
# Processed by: cddbd v1.5.2PL0 Copyright (c) Steve Scherf et al.
# Submitted via: ExactAudioCopy v0.99pb4
#
DISCID=a80a710d
DTITLE=Herz Jühning - Miasma
DYEAR=2009
DGENRE=Industrial
TTITLE0=Induction
TTITLE1=Miasma
TTITLE2=Can't Be
TTITLE3=No Happy Future
TTITLE4=The Rape
TTITLE5=Opisthotonus
TTITLE6=Abortion
TTITLE7=Reopened Eyes
TTITLE8=Infibulation
TTITLE9=Vulnerability
TTITLE10=Messiah
TTITLE11=Defense Reaction
TTITLE12=Haunt You Every Day
EXTD=
EXTT0=
EXTT1=
EXTT2=
EXTT3=
EXTT4=
EXTT5=
EXTT6=
EXTT7=
EXTT8=
EXTT9=
EXTT10=
EXTT11=
EXTT12=
PLAYORDER=
